<svg xmlns="http://www.w3.org/2000/svg" xmlns:xlink="http://www.w3.org/1999/xlink" width="150.649" height="69.25" viewBox="0 0 150.649 69.25">
  <defs>
    <radialGradient id="radial-gradient" cx="0.219" cy="0.279" r="0.677" gradientTransform="translate(0.008) scale(0.984 1)" gradientUnits="objectBoundingBox">
      <stop offset="0" stop-color="#f37021"/>
      <stop offset="0.2" stop-color="#fefefe"/>
      <stop offset="0.6" stop-color="#f37021"/>
      <stop offset="1" stop-color="#f37021"/>
    </radialGradient>
    <clipPath id="clip-path">
      <path id="Path_350" data-name="Path 350" d="M103.233,221.155H89A19.77,19.77,0,0,1,58.368,234.7a19.756,19.756,0,0,1-8.718-16.4,19.757,19.757,0,0,1,19.482-19.77c.279.12,3.077,1.441,3.163,6.283a6.475,6.475,0,0,0,1.31,3.8H69.427a9.581,9.581,0,0,0-5.409,1.654,9.8,9.8,0,0,0-3.526,4.276,9.673,9.673,0,0,0,.9,9.172,9.77,9.77,0,0,0,4.274,3.522,9.692,9.692,0,0,0,9.172-.893,9.791,9.791,0,0,0,3.526-4.277,9.6,9.6,0,0,0,.759-3.764V195.854s1.2-3.1,6.3-3.193a6.477,6.477,0,0,0,3.786-1.3v19.711h3.944V173.337s1.2-3.1,6.295-3.191a6.481,6.481,0,0,0,3.779-1.3h.012ZM79.122,186.329l0,.038v-.038Z" transform="translate(-49.65 -168.85)"/>
    </clipPath>
    <radialGradient id="radial-gradient-2" cx="0.5" cy="0.5" r="0.5" gradientTransform="translate(0)" gradientUnits="objectBoundingBox">
      <stop offset="0.8" stop-color="#fefefe" stop-opacity="0.898"/>
      <stop offset="1" stop-color="#fefefe" stop-opacity="0"/>
    </radialGradient>
  </defs>
  <g id="logo" transform="translate(-49.6 -168.8)">
    <g id="_Group_" data-name="&lt;Group&gt;" transform="translate(49.6 168.8)">
      <path id="_Compound_Path_" data-name="&lt;Compound Path&gt;" d="M882.139,214.631A14.813,14.813,0,0,1,870,221.194a28.986,28.986,0,0,1-3.405,7.93,28.685,28.685,0,0,1-5.55,6.516,29.932,29.932,0,0,1-3.288,2.474c-.589-.047-3.1-.412-4.749-4.112a5.8,5.8,0,0,0-3.064-3.017,21.854,21.854,0,0,0,3.358-2.05,18.658,18.658,0,0,0,4.4-4.619,19.244,19.244,0,0,0,1.673-3.111v-.012H855.98a14.764,14.764,0,0,1-8.319-2.545,14.949,14.949,0,0,1-5.4-6.54,14.939,14.939,0,0,1,1.379-14.128,14.892,14.892,0,0,1,27.231,8.331v4.666a4.615,4.615,0,0,0,1.6-.683,4.785,4.785,0,0,0,2.133-3.983V173.378s1.19-3.1,6.292-3.193a6.5,6.5,0,0,0,3.782-1.284h.012v37.412A14.865,14.865,0,0,1,882.139,214.631Zm-21.351-8.319a4.8,4.8,0,1,0-4.808,4.808c3.559,0,4.808,2.274,4.808,2.274Z" transform="translate(-747.834 -168.888)" fill="#231f20" fill-rule="evenodd"/>
      <path id="_Path_" data-name="&lt;Path&gt;" d="M1248.792,170.1a6.37,6.37,0,0,0,3.782-1.3h.012v52.306H1242.5V173.289S1243.7,170.19,1248.792,170.1Z" transform="translate(-1101.938 -168.8)" fill="#231f20"/>
      <path id="_Compound_Path_2" data-name="&lt;Compound Path&gt;" d="M138.222,214.631a14.948,14.948,0,0,1-6.54,5.4,14.725,14.725,0,0,1-5.8,1.167H88.956A19.781,19.781,0,0,1,58.32,234.745a19.79,19.79,0,0,1,3.37-34.619,19.6,19.6,0,0,1,7.4-1.544c.283.118,3.075,1.438,3.158,6.28a6.577,6.577,0,0,0,1.308,3.794H69.384a9.683,9.683,0,0,0-8.036,15.106,9.837,9.837,0,0,0,4.277,3.523,9.685,9.685,0,0,0,3.759.754,9.583,9.583,0,0,0,5.409-1.65,9.714,9.714,0,0,0,4.289-8.036V195.9s1.19-3.1,6.292-3.193a6.449,6.449,0,0,0,3.782-1.3v19.7H93.1v-37.73s1.2-3.1,6.292-3.193a6.44,6.44,0,0,0,3.782-1.284h.012v25.711s1.2-3.1,6.292-3.193h16.4a14.922,14.922,0,0,1,8.331,2.545,15.1,15.1,0,0,1,5.385,6.551,14.827,14.827,0,0,1-1.379,14.116Zm-8.354-10.994a4.819,4.819,0,0,0-2.121-1.756,4.651,4.651,0,0,0-1.862-.377H108a4.805,4.805,0,0,0-4.808,4.808v4.8h22.695a4.746,4.746,0,0,0,2.675-.813,4.966,4.966,0,0,0,1.756-2.121,5.094,5.094,0,0,0,.377-1.862A4.79,4.79,0,0,0,129.868,203.637ZM79.082,186.375v0Z" transform="translate(-49.6 -168.888)" fill="#231f20" fill-rule="evenodd"/>
    </g>
    <g id="_Group_2" data-name="&lt;Group&gt;" transform="translate(66.509 176.176)">
      <path id="_Path_2" data-name="&lt;Path&gt;" d="M193.1,237.751a6.464,6.464,0,1,1,6.457,6.363A6.4,6.4,0,0,1,193.1,237.751Z" transform="translate(-193.1 -231.4)" fill="url(#radial-gradient)"/>
    </g>
    <g id="_Clip_Group_" data-name="&lt;Clip Group&gt;" transform="translate(49.606 168.806)" clip-path="url(#clip-path)">
      <path id="_Path_3" data-name="&lt;Path&gt;" d="M23.275,33.417-3.9,31.991l27.066,2.852-.024.224L-3.92,32.215l26.878,4.266-.035.212L-3.956,32.439l26.618,5.656-.047.224L-4,32.651,22.286,39.7l-.059.212L-4.062,32.875l25.888,8.4-.071.212-25.888-8.4,25.4,9.745-.071.212L-4.2,33.287,20.648,44.364l-.082.2L-4.3,33.5l24.25,12.349-.106.2L-4.4,33.688,19.163,47.3l-.106.2L-4.509,33.888,18.315,48.712,18.2,48.9-4.627,34.077l22.011,15.99-.13.177L-4.769,34.254,16.382,51.375l-.141.177L-4.9,34.43l20.22,18.205-.153.165L-5.052,34.6,14.191,53.837l-.153.153L-5.2,34.748,13,54.968l-.165.153L-5.37,34.9,11.751,56.053l-.177.13L-5.546,35.043l15.99,22.011-.177.13L-5.723,35.173,9.088,58l-.177.118L-5.912,35.29l13.6,23.567-.189.118L-6.112,35.408,6.249,59.646l-.2.106L-6.3,35.5,4.764,60.365l-.2.094L-6.513,35.6,3.244,61l-.212.082-9.745-25.4,8.4,25.876-.212.071-8.4-25.888L.11,62.027l-.212.059L-7.149,35.8l5.668,26.618-.224.047L-7.361,35.844l4.254,26.878-.224.035L-7.585,35.88l2.852,27.066-.224.024L-7.809,35.9l1.426,27.172-.224.012L-8.021,35.915V63.134h-.224V35.915L-9.671,63.087l-.224-.012L-8.469,35.9-11.32,62.969l-.224-.024L-8.693,35.88l-4.254,26.878-.224-.035,4.254-26.878-5.656,26.618-.212-.047L-9.129,35.8l-7.046,26.288-.212-.059,7.046-26.288-8.413,25.888-.212-.071,8.413-25.876-9.757,25.4L-19.521,61l9.757-25.4L-20.829,60.459l-.212-.094L-9.965,35.5l-12.361,24.25-.2-.106,12.361-24.238-13.61,23.566-.189-.118,13.6-23.567L-25.177,58.115-25.366,58l14.823-22.824-16,22.011-.177-.13,15.99-22.011L-27.852,56.182l-.177-.13L-10.9,34.9l-18.217,20.22-.165-.153,18.205-20.22L-30.315,53.99l-.153-.153L-11.226,34.6-31.446,52.8l-.153-.165L-11.367,34.43-32.518,51.551l-.141-.177,21.151-17.121-22.023,15.99-.13-.177,22.011-15.99L-34.463,48.9l-.13-.189,22.824-14.823L-35.334,47.5l-.106-.2,23.567-13.61-24.25,12.361-.106-.2L-11.98,33.5-36.843,44.564l-.082-.2,24.851-11.076-25.4,9.757-.071-.212,25.4-9.745-25.888,8.4-.071-.212,25.888-8.4L-38.5,39.909l-.059-.212,26.288-7.046-26.618,5.668-.047-.224,26.618-5.656L-39.2,36.693l-.035-.212,26.878-4.266-27.066,2.852-.024-.224,27.066-2.852-27.172,1.426-.012-.212,27.172-1.426H-39.6v-.224h27.208l-27.172-1.426.012-.224,27.172,1.426L-39.447,28.48l.024-.212,27.066,2.84-26.878-4.254.035-.224,26.878,4.254L-38.94,25.228l.047-.212,26.618,5.656-26.288-7.046.059-.212,26.288,7.046L-38.1,22.046l.071-.212,25.888,8.413-25.4-9.757.071-.212,25.4,9.757L-36.925,18.971l.082-.212L-11.98,29.835-36.23,17.474l.106-.2,24.25,12.361-23.567-13.61.106-.189,23.567,13.6L-34.592,14.623l.13-.189L-11.65,29.257l-22.011-16,.13-.177,22.023,15.99L-32.66,11.948l.141-.177L-11.367,28.9-31.6,10.687l.153-.165,20.22,18.217L-30.468,9.5l.153-.165,19.242,19.242L-29.278,8.354l.165-.153L-10.9,28.433-28.029,7.282l.177-.141,17.121,21.151L-26.721,6.268l.177-.13,16,22.023L-25.366,5.337l.189-.13,14.812,22.824-13.6-23.567.189-.106,13.61,23.567L-22.526,3.676l.2-.094L-9.965,27.82-21.041,2.957l.212-.082L-9.765,27.737l-9.757-25.4.212-.082,9.757,25.4L-17.966,1.767l.212-.059,8.413,25.876L-16.387,1.3l.212-.059,7.046,26.288L-14.784.907l.212-.047,5.656,26.618L-13.17.6l.224-.035,4.254,26.878L-11.544.377l.224-.024,2.852,27.066L-9.894.247l.224-.012,1.426,27.172V.2h.224V27.407L-6.607.235l.224.012L-7.809,27.419-4.957.353l.224.024L-7.585,27.443-3.331.565-3.107.6-7.361,27.478-1.705.86l.224.047L-7.149,27.525-.1,1.237.11,1.3-6.925,27.584l8.4-25.876.212.059-8.4,25.888L3.032,2.25l.212.082-9.757,25.4L4.564,2.875l.2.082L-6.3,27.82,6.048,3.582l.2.094L-6.112,27.926,7.5,4.359l.189.106-13.6,23.567L8.912,5.208l.177.13L-5.723,28.162,10.267,6.139l.177.13L-5.546,28.291,11.575,7.14l.177.141L-5.37,28.433,12.835,8.2,13,8.354-5.2,28.574,14.037,9.332l.153.165L-5.052,28.739l20.22-18.217.153.165L-4.9,28.9,16.241,11.771l.141.177L-4.769,29.069l22.023-15.99.13.177-22.011,16L18.2,14.434l.118.189L-4.509,29.434l23.567-13.6.106.189L-4.4,29.634l24.25-12.361.106.2L-4.3,29.835,20.565,18.759l.082.212L-4.2,30.035l25.4-9.757.071.212-25.4,9.757,25.888-8.413.071.212L-4.062,30.459l26.288-7.046.059.212L-4,30.671l26.618-5.656.047.212L-3.956,30.883,22.922,26.63l.035.224L-3.92,31.107l27.066-2.84.012.13.012.082L-3.9,31.331l27.172-1.426.012.224L-3.885,31.555H23.323v.224H-3.885L23.287,33.2Z" transform="translate(29.083 -20.072)" fill="url(#radial-gradient-2)"/>
      <path id="_Compound_Path_3" data-name="&lt;Compound Path&gt;" d="M103.19,221.106H88.956a19.8,19.8,0,1,1-19.867-22.612c.283.118,3.075,1.438,3.158,6.28a6.607,6.607,0,0,0,1.308,3.794H69.384a9.683,9.683,0,0,0-8.036,15.106,9.837,9.837,0,0,0,4.277,3.523,9.685,9.685,0,0,0,3.759.754,9.583,9.583,0,0,0,5.409-1.65,9.837,9.837,0,0,0,3.523-4.277,9.706,9.706,0,0,0,.766-3.771V195.807s1.19-3.1,6.292-3.193a6.449,6.449,0,0,0,3.782-1.3v19.7H93.1v-37.73s1.2-3.1,6.292-3.193a6.4,6.4,0,0,0,3.782-1.3h.012Zm-24.109-34.82v0Z" transform="translate(-49.606 -168.806)" fill="none" fill-rule="evenodd"/>
    </g>
    <path id="_Compound_Path_4" data-name="&lt;Compound Path&gt;" d="M365.814,696.8a3.481,3.481,0,0,0-1.131-.177.537.537,0,0,0-.577.518c.012.424.46.719.848.966.412.271.766.495.754.86a2.158,2.158,0,0,1-2.416,1.944,2.277,2.277,0,0,1-2.392-2.2l.542-1.343.731.412-.365.931c-.024.707.436,1.3,1.485,1.3.813,0,1.355-.424,1.414-.9a5.124,5.124,0,0,1-1.3-1.108,1.686,1.686,0,0,1-.224-.848,1.414,1.414,0,0,1,.483-1.06,1.725,1.725,0,0,1,1.084-.33,5.949,5.949,0,0,1,1.284.212Zm-3.064.13a11.313,11.313,0,0,0-1.838.094v-.566l.33-.083c-.295-.554-.153-1.426.731-1.426.106,0,.306,0,.566.023,0,.259.012.365.012.613a2.664,2.664,0,0,0-.46-.023c-.542,0-.342.731.259.731h.4Zm5.774,2.38c-.012,1.3-.389,1.8-1.426,1.826l-1.072-.365.412-.731.66.188c.153.071.436.024.436-.813v-3.394h.99Zm.8.106v-5.079h.966v4.183h1.544a1.9,1.9,0,0,1-.212-.86,1.685,1.685,0,1,1,3.358,0v.86h1.567v-4.183h.978v5.079Zm2.793-4.678a.536.536,0,0,1,.542-.577.547.547,0,0,1,.566.577.567.567,0,0,1-.566.6A.556.556,0,0,1,372.118,694.742ZM374,698.525v-.943c0-.566-.177-.9-.636-.9a.818.818,0,0,0-.789.9.836.836,0,0,0,.884.943Zm-.412-3.782a.56.56,0,1,1,1.119,0,.561.561,0,1,1-1.119,0Zm6.139,4.678h-.978v-5.079h.978Zm1.932,0v-5.067h.966v4.183h1.414a2.3,2.3,0,0,1-.165-.778A1.689,1.689,0,0,1,385,696.286l.141-.566h.848c1.1,0,2.816.2,2.816,1.944v.872h1.414v-2.51h.978v2.51h1.815v-2.51h.978v2.51H397.6c-.012-.813-.306-1.214-.884-1.261H395.59l-.283-.884,2.852-2.074.566.754-1.98,1.379a1.883,1.883,0,0,1,1.8,2.086h1.991v-2.5h.966v3.382Zm4.218-.884c0-.118.012-.212.012-.33v-.424a.629.629,0,0,0-.577-.577.64.64,0,0,0-.577.577c0,.33.071.754.554.754Zm1.932,0v-.8c0-.8-.907-.99-1.379-1.013a1.626,1.626,0,0,1,.342,1.049v.766Zm2.333,2.215a.555.555,0,1,1,1.108,0,.556.556,0,1,1-1.108,0Zm2-6a.56.56,0,1,1,1.119,0,.561.561,0,1,1-1.119,0Zm1.485,0a.56.56,0,1,1,1.119,0,.561.561,0,1,1-1.119,0Zm5.526,6.009a.555.555,0,1,1,1.108,0,.556.556,0,1,1-1.108,0Zm1.308,0a.56.56,0,1,1,1.119,0,.561.561,0,1,1-1.119,0Zm6.21-1.343a1.423,1.423,0,0,1-.412-.13l-.106.13h-.9a1.838,1.838,0,0,1,0-3.676,1.938,1.938,0,0,1,.707.13v-.165h.978v2.828h1.343a1.894,1.894,0,0,1-.212-.86,1.685,1.685,0,1,1,3.358,0v.86h1.8v-2.51h.978v2.51h3.771a2.6,2.6,0,0,1-.283-.9c-.082-.518-.306-.9-.742-.9a3.693,3.693,0,0,0-.954.236l-.271-.9a7.521,7.521,0,0,1,1.4-.283c.943,0,1.4.754,1.567,1.591a1.563,1.563,0,0,0,.518,1.143h1.261v-2.5h.978v.636a2.262,2.262,0,0,1,1.673-.789,2.025,2.025,0,0,1,2.015,2.192v1.343Zm-2.734-4.843a.536.536,0,0,1,.542-.577.547.547,0,0,1,.566.577.561.561,0,0,1-.566.6A.549.549,0,0,1,403.944,694.577Zm2.038,3.959v-1.2a.666.666,0,0,0-.719-.636.88.88,0,0,0-.872.884.944.944,0,0,0,.872.954Zm-.554-3.959a.56.56,0,1,1,1.119,0,.561.561,0,1,1-1.119,0Zm5.043,3.959v-.954c0-.554-.177-.884-.636-.884a.816.816,0,0,0-.8.884.845.845,0,0,0,.884.954Zm-1.2-3.782a.541.541,0,0,1,.566-.577.532.532,0,0,1,.554.577.558.558,0,0,1-.554.6A.567.567,0,0,1,409.27,694.754Zm3.028,6a.566.566,0,1,1,1.131,0,.567.567,0,1,1-1.131,0Zm1.5,0a.548.548,0,0,1,.554-.589.542.542,0,0,1,.554.589.571.571,0,0,1-.554.6A.579.579,0,0,1,413.8,700.752Zm10.4-2.215v-.342c0-.907-.448-1.473-1.037-1.473-.742,0-1.379.636-1.685,1.6v.212Z" transform="translate(-274.619 -463.314)" fill="#67747c" fill-rule="evenodd"/>
  </g>
</svg>
