<svg xmlns="http://www.w3.org/2000/svg" width="28.215" height="16.487" viewBox="0 0 28.215 16.487">
  <g id="Group_2925" data-name="Group 2925" transform="translate(-1022 -3044.964)">
    <g id="Group_2922" data-name="Group 2922" transform="translate(1022 3044.964)">
      <path id="Path_54419" data-name="Path 54419" d="M-7.583,0h4.93l.134,10.689a24.7,24.7,0,0,0-3-2.326,10.415,10.415,0,0,0-3.946-.8Z" transform="translate(16.734 5.798)" fill="#fd7802"/>
      <path id="Path_54420" data-name="Path 54420" d="M6.589,2.572c3.874,0,7.035,2.633,7.035,6.507a6.545,6.545,0,0,1-6.6,6.863c-3.874,0-7.529-2.6-7.529-6.471A6.986,6.986,0,0,1,6.589,2.572Z" transform="translate(0.507 -2.572)" fill="#fd7802"/>
    </g>
    <g id="Group_2923" data-name="Group 2923" transform="translate(1036 3044.964)">
      <path id="Path_54419-2" data-name="Path 54419" d="M-7.583,0h4.93l.134,10.689a24.7,24.7,0,0,0-3-2.326,10.415,10.415,0,0,0-3.946-.8Z" transform="translate(16.734 5.798)" fill="#fd7802"/>
      <path id="Path_54420-2" data-name="Path 54420" d="M6.589,2.572c3.874,0,7.035,2.633,7.035,6.507a6.545,6.545,0,0,1-6.6,6.863c-3.874,0-7.529-2.6-7.529-6.471A6.986,6.986,0,0,1,6.589,2.572Z" transform="translate(0.507 -2.572)" fill="#fd7802"/>
    </g>
  </g>
</svg>
