<svg xmlns="http://www.w3.org/2000/svg" width="22.368" height="23.044" viewBox="0 0 22.368 23.044">
  <g id="图层_1" data-name="图层 1" transform="translate(-79.805 -74.675)">
    <path id="Path_578" data-name="Path 578" d="M179.227,242.592a2.905,2.905,0,0,1-.551,5.759.472.472,0,0,0-.475.493h-8.283a.47.47,0,0,0-.475-.493,3.633,3.633,0,0,1-3.47-2.653,3.59,3.59,0,0,1,.2-2.4,3.649,3.649,0,0,1,.556-.881,3.554,3.554,0,0,1,.929-.774,3.649,3.649,0,0,1,2.918-.295.507.507,0,0,0,.556-.227,4.308,4.308,0,0,1,5.317-1.562c.057.025.114.051.169.077s.127.066.19.1a4.4,4.4,0,0,1,2.08,2.516A.5.5,0,0,0,179.227,242.592ZM176.4,248.6a.5.5,0,0,0,.344-.605l-.487-1.261a.5.5,0,0,0-.605-.344.5.5,0,0,0-.344.605l.484,1.261a.5.5,0,0,0,.606.344Zm-2.5,0a.5.5,0,0,0,.344-.605l-.484-1.261a.5.5,0,0,0-.605-.344.5.5,0,0,0-.344.605l.484,1.261a.5.5,0,0,0,.606.344Zm-2.5,0a.5.5,0,0,0,.343-.605q-.241-.63-.484-1.261a.505.505,0,0,0-.606-.344.5.5,0,0,0-.343.605q.241.63.484,1.261a.51.51,0,0,0,.609.344Z" transform="translate(-80.394 -153.715)" fill="#dcdddd"/>
    <path id="Path_579" data-name="Path 579" d="M365.861,232.93a.493.493,0,0,1,0,.985h-2.21a.493.493,0,0,1,0-.985Z" transform="translate(-264.761 -147.862)" fill="#231815"/>
    <path id="Path_580" data-name="Path 580" d="M341.528,244.32a4.844,4.844,0,0,1,1.925,2.586,3.4,3.4,0,0,1-.679,6.729H342.3a.471.471,0,0,1,.475-.493,2.905,2.905,0,0,0,.551-5.759.5.5,0,0,1-.344-.344,4.391,4.391,0,0,0-1.5-2.14Q341.514,244.61,341.528,244.32Z" transform="translate(-244.49 -158.504)" fill="#231815"/>
    <path id="Path_581" data-name="Path 581" d="M348.423,153.706a.494.494,0,0,1,.5.854l-1.914,1.105a.493.493,0,0,1-.5-.85Z" transform="translate(-248.966 -73.776)" fill="#231815"/>
    <path id="Path_582" data-name="Path 582" d="M344.455,238.206a3.89,3.89,0,0,1-1.055,7.634.459.459,0,0,1-.475-.493h.475a3.4,3.4,0,0,0,.679-6.729,4.845,4.845,0,0,0-1.925-2.586c0-.072.007-.145.007-.218v-.071c0-.1-.006-.2-.011-.294a5.5,5.5,0,0,1,2.305,2.758c-.081-.024-.162-.045-.245-.066l.344.344C344.524,238.392,344.49,238.3,344.455,238.206Z" transform="translate(-245.116 -150.217)" fill="#231815"/>
    <path id="Path_583" data-name="Path 583" d="M373.765,276.513c.036.093.066.187.1.281l-.344-.344C373.6,276.468,373.683,276.489,373.765,276.513Z" transform="translate(-274.426 -188.524)" fill="#231815"/>
    <path id="Path_584" data-name="Path 584" d="M327.467,392.989a.5.5,0,0,1-.343.605.507.507,0,0,1-.606-.343l-.484-1.262a.5.5,0,0,1,.344-.605.507.507,0,0,1,.606.344Z" transform="translate(-230.035 -295.893)" fill="#2ea7e0"/>
    <path id="Path_585" data-name="Path 585" d="M342.32,240.528V240.5A.2.2,0,0,1,342.32,240.528Z" transform="translate(-245.275 -154.935)" fill="#231815"/>
    <path id="Path_586" data-name="Path 586" d="M341.56,241.19a.483.483,0,0,0,.05-.19c0,.073,0,.146-.007.218A.346.346,0,0,0,341.56,241.19Z" transform="translate(-244.565 -155.402)" fill="#231815"/>
    <path id="Path_587" data-name="Path 587" d="M328.262,237.387a.5.5,0,0,1-.587.229c-.066-.034-.125-.066-.19-.1a.455.455,0,0,1-.158-.358.489.489,0,0,1,.055-.23A4.75,4.75,0,0,1,328.262,237.387Z" transform="translate(-231.267 -151.599)" fill="#231815"/>
    <path id="Path_588" data-name="Path 588" d="M328.17,233.436a.5.5,0,0,1,.929.2v.07a.485.485,0,0,1-.05.19A4.751,4.751,0,0,0,328.17,233.436Z" transform="translate(-232.054 -148.105)" fill="#231815"/>
    <path id="Path_589" data-name="Path 589" d="M332.63,244.118a.5.5,0,0,0,.586-.229l.043.028q-.014.291-.054.576A4.393,4.393,0,0,0,332.63,244.118Z" transform="translate(-236.222 -158.102)" fill="#231815"/>
    <path id="Path_590" data-name="Path 590" d="M311,350.128a.5.5,0,0,1-.344.605.507.507,0,0,1-.606-.344l-.484-1.26a.5.5,0,0,1,.344-.605.506.506,0,0,1,.605.344Z" transform="translate(-214.647 -255.848)" fill="#2ea7e0"/>
    <path id="Path_591" data-name="Path 591" d="M301.6,95.969a.493.493,0,0,1,.85.5l-1.1,1.914a.494.494,0,0,1-.854-.5Z" transform="translate(-206.132 -19.672)" fill="#231815"/>
    <path id="Path_592" data-name="Path 592" d="M326.368,228.8a5.345,5.345,0,0,0-.058-.544,5.147,5.147,0,0,1,1.04.472c.005.1.01.2.011.294a.5.5,0,0,0-.929-.2Z" transform="translate(-230.317 -143.499)" fill="#231815"/>
    <path id="Path_593" data-name="Path 593" d="M327.264,236.566a.489.489,0,0,0-.055.23c0-.085,0-.171-.009-.255Z" transform="translate(-231.148 -151.235)" fill="#231815"/>
    <path id="Path_594" data-name="Path 594" d="M327.18,240.43a.455.455,0,0,0,.158.358c-.055-.027-.112-.053-.169-.077C327.176,240.617,327.18,240.524,327.18,240.43Z" transform="translate(-231.12 -154.87)" fill="#231815"/>
    <path id="Path_595" data-name="Path 595" d="M177.86,233.736a4.082,4.082,0,0,1,.807.08h0a3.98,3.98,0,0,1,.452.118,4.845,4.845,0,0,1,5.745-1.85c0,.085.008.17.009.255s0,.187-.011.28a4.308,4.308,0,0,0-5.317,1.562.5.5,0,0,1-.556.227,3.649,3.649,0,0,0-2.918.295,3.553,3.553,0,0,0-.929.774,4.786,4.786,0,0,1-.282-.43A4.072,4.072,0,0,1,177.86,233.736Z" transform="translate(-88.813 -146.78)" fill="#231815"/>
    <path id="Path_596" data-name="Path 596" d="M237.314,224.89a4.835,4.835,0,0,0-4.032,2.162,3.985,3.985,0,0,0-.452-.118h0l.028-.131.556-.226c-.108-.033-.217-.062-.328-.087a5.4,5.4,0,0,1,5.206-2,5,5,0,0,1,.68.17,5.337,5.337,0,0,1,.058.544A4.829,4.829,0,0,0,237.314,224.89Z" transform="translate(-142.976 -139.897)" fill="#231815"/>
    <path id="Path_597" data-name="Path 597" d="M289.5,392.989a.5.5,0,0,1-.343.605.507.507,0,0,1-.606-.343l-.485-1.262a.5.5,0,0,1,.344-.605.507.507,0,0,1,.606.344Z" transform="translate(-194.56 -295.893)" fill="#2ea7e0"/>
    <path id="Path_598" data-name="Path 598" d="M170.337,158.724a5.426,5.426,0,0,1,4.263,4.471,5,5,0,0,0-.677-.17,5.4,5.4,0,0,0-5.2,2,4.668,4.668,0,0,0-4.3,1.216,5.371,5.371,0,0,1,5.917-7.518Z" transform="translate(-78.607 -78.434)" fill="#f8b62d"/>
    <path id="Path_599" data-name="Path 599" d="M273.084,350.128a.5.5,0,0,1-.344.605.507.507,0,0,1-.606-.344l-.481-1.26a.5.5,0,0,1,.344-.605.506.506,0,0,1,.606.344Z" transform="translate(-179.227 -255.848)" fill="#2ea7e0"/>
    <path id="Path_600" data-name="Path 600" d="M251.538,392.989a.5.5,0,0,1-.344.605.506.506,0,0,1-.605-.343l-.485-1.261a.5.5,0,0,1,.344-.606.507.507,0,0,1,.606.344Z" transform="translate(-159.093 -295.893)" fill="#2ea7e0"/>
    <path id="Path_601" data-name="Path 601" d="M235.077,350.109a.5.5,0,0,1-.343.605.507.507,0,0,1-.606-.344l-.484-1.261a.5.5,0,0,1,.343-.605.507.507,0,0,1,.606.344Z" transform="translate(-143.713 -255.829)" fill="#2ea7e0"/>
    <path id="Path_602" data-name="Path 602" d="M239.045,75.151v2.21a.493.493,0,0,1-.985,0v-2.21A.493.493,0,0,1,239.045,75.151Z" transform="translate(-147.862 0)" fill="#231815"/>
    <path id="Path_603" data-name="Path 603" d="M233.806,256.237l-.556.226c.073-.108.15-.212.229-.313C233.589,256.176,233.7,256.206,233.806,256.237Z" transform="translate(-143.368 -169.557)" fill="#231815"/>
    <path id="Path_604" data-name="Path 604" d="M171.24,255.707a4.668,4.668,0,0,1,4.3-1.216c-.079.1-.156.206-.229.313l-.028.131a4.088,4.088,0,0,0-3.809,1.233A5.163,5.163,0,0,1,171.24,255.707Z" transform="translate(-85.43 -167.899)" fill="#231815"/>
    <path id="Path_605" data-name="Path 605" d="M160.769,97.882a.494.494,0,0,1-.854.5l-1.105-1.914a.494.494,0,0,1,.854-.5Z" transform="translate(-73.752 -19.671)" fill="#231815"/>
    <path id="Path_606" data-name="Path 606" d="M151.463,289.9a4.087,4.087,0,0,0,4.087,4.087h.475a.462.462,0,0,1-.475.493,4.583,4.583,0,0,1-4.011-6.792c.033-.06.066-.12.1-.178.035.066.071.125.108.188.06.1.123.2.188.289A4.067,4.067,0,0,0,151.463,289.9Z" transform="translate(-66.502 -198.858)" fill="#231815"/>
    <path id="Path_607" data-name="Path 607" d="M166.152,281.67a4.793,4.793,0,0,0,.282.43,3.648,3.648,0,0,0-.556.881q-.179-.215-.338-.449A4.073,4.073,0,0,1,166.152,281.67Z" transform="translate(-80.105 -193.401)" fill="#231815"/>
    <path id="Path_608" data-name="Path 608" d="M161.655,149.745a5.148,5.148,0,0,0-1.04-.472,5.368,5.368,0,1,0-10.184,3.047,4.453,4.453,0,0,0-.672.846,6.355,6.355,0,1,1,11.9-3.421Z" transform="translate(-64.622 -64.511)" fill="#231815"/>
    <path id="Path_609" data-name="Path 609" d="M161.938,275.12a4.071,4.071,0,0,0-.612.862c-.066-.095-.128-.19-.188-.289-.037-.062-.074-.125-.108-.188a4.451,4.451,0,0,1,.671-.846Q161.808,274.9,161.938,275.12Z" transform="translate(-75.891 -186.852)" fill="#231815"/>
    <path id="Path_610" data-name="Path 610" d="M162.4,300.307a.471.471,0,0,1,.475.493H162.4a4.087,4.087,0,0,1-3.612-6q.16.234.338.449a3.59,3.59,0,0,0-.2,2.4A3.633,3.633,0,0,0,162.4,300.307Z" transform="translate(-73.353 -205.669)" fill="#231815"/>
    <path id="Path_611" data-name="Path 611" d="M103.515,154.782a.493.493,0,0,1-.5.85l-1.914-1.105a.494.494,0,0,1,.5-.854Z" transform="translate(-19.677 -73.747)" fill="#231815"/>
    <path id="Path_612" data-name="Path 612" d="M103.02,295.386a.493.493,0,0,1,.5.85l-1.914,1.105a.494.494,0,0,1-.5-.854Z" transform="translate(-19.679 -206.151)" fill="#231815"/>
    <path id="Path_613" data-name="Path 613" d="M82.491,232.93a.493.493,0,0,1,0,.985H80.281a.493.493,0,0,1,0-.985Z" transform="translate(0 -147.862)" fill="#231815"/>
  </g>
</svg>
