<svg xmlns="http://www.w3.org/2000/svg" width="45" height="45" viewBox="0 0 45 45">
  <path id="Subtraction_16" data-name="Subtraction 16" d="M-7103.964-2640a22.353,22.353,0,0,1-8.758-1.768,22.417,22.417,0,0,1-7.153-4.822,22.431,22.431,0,0,1-4.822-7.152,22.355,22.355,0,0,1-1.768-8.758,22.361,22.361,0,0,1,1.768-8.757,22.429,22.429,0,0,1,4.822-7.152,22.44,22.44,0,0,1,7.153-4.822,22.353,22.353,0,0,1,8.758-1.768,22.354,22.354,0,0,1,8.758,1.768,22.414,22.414,0,0,1,7.151,4.822,22.4,22.4,0,0,1,4.822,7.152,22.37,22.37,0,0,1,1.769,8.757,22.368,22.368,0,0,1-1.769,8.758,22.4,22.4,0,0,1-4.822,7.152,22.4,22.4,0,0,1-7.151,4.822A22.354,22.354,0,0,1-7103.964-2640Zm-5.918-31.142h0v18l15.334-9-15.334-9Z" transform="translate(7126.465 2685)" fill="#fff" opacity="0.85"/>
</svg>
