<svg xmlns="http://www.w3.org/2000/svg" width="145" height="82" viewBox="0 0 145 82">
  <g id="Group_2728" data-name="Group 2728" transform="translate(-160 -43)">
    <g id="Path_54236" data-name="Path 54236" transform="translate(160 43)" fill="#f4f1e4">
      <path d="M 140 81.5 L 5 81.5 C 2.518690824508667 81.5 0.5 79.48130798339844 0.5 77 L 0.5 5 C 0.5 2.518690824508667 2.518690824508667 0.5 5 0.5 L 140 0.5 C 142.4813079833984 0.5 144.5 2.518690824508667 144.5 5 L 144.5 77 C 144.5 79.48130798339844 142.4813079833984 81.5 140 81.5 Z" stroke="none"/>
      <path d="M 5 1 C 2.794403076171875 1 1 2.794403076171875 1 5 L 1 77 C 1 79.20559692382812 2.794403076171875 81 5 81 L 140 81 C 142.2055969238281 81 144 79.20559692382812 144 77 L 144 5 C 144 2.794403076171875 142.2055969238281 1 140 1 L 5 1 M 5 0 L 140 0 C 142.7614135742188 0 145 2.238578796386719 145 5 L 145 77 C 145 79.76142120361328 142.7614135742188 82 140 82 L 5 82 C 2.238555908203125 82 0 79.76142120361328 0 77 L 0 5 C 0 2.238578796386719 2.238555908203125 0 5 0 Z" stroke="none" fill="#f37021"/>
    </g>
    <text id="إعلن_معنا" data-name="إعلن معنا" transform="translate(198 87)" fill="#252527" font-size="18" font-family="AlWatanBold, Al Watan" text-decoration="underline"><tspan x="0" y="0">إعلن معنا</tspan></text>
  </g>
</svg>
